# xmcd
#
# Track frame offsets:
#	151
#	28365
#	41148
#	55367
#	81660
#	95563
#	110370
#	121917
#	151792
#	164614
#	185742
#	196589
#	208450
#	223127
#	240314
#	264289
#	274424
#	284133
#	298418
#
# Disc length: 4219 seconds
#
# Revision: 2
# Processed by: cddbd v1.4b41PL2 Copyright (c) Steve Scherf et al.
# Submitted via: EZCDDA 4.3.2
#
DISCID=38107913
DTITLE=Western Themes
DYEAR=1900
DGENRE=
TTITLE0=The Unforgiven
TTITLE1=The Good The Bad and The Ugly
TTITLE2=The Big Country
TTITLE3=The Magnificient Seven
TTITLE4=A Fistful Of Dollars
TTITLE5=How The West Was Won
TTITLE6=Dances With Wolves
TTITLE7=Stagecoach
TTITLE8=For A Few Dollars More
TTITLE9=True Grit
TTITLE10=Bonanza
TTITLE11=Hang 'Em High
TTITLE12=A professional Gun
TTITLE13=Once Upon A time in the west
TTITLE14=Two Mules For Sister Sara
TTITLE15=The Sons Of Kate Elder
TTITLE16=The Return Of The Magnificent Seven
TTITLE17=High Noon
TTITLE18=Wild Wild Wes +bonus
EXTD=
EXTT0=
EXTT1=
EXTT2=
EXTT3=
EXTT4=
EXTT5=
EXTT6=
EXTT7=
EXTT8=
EXTT9=
EXTT10=
EXTT11=
EXTT12=
EXTT13=
EXTT14=
EXTT15=
EXTT16=
EXTT17=
EXTT18=
PLAYORDER=
